<svg height="512pt" viewBox="-119 0 512 512.001" width="512pt" xmlns="http://www.w3.org/2000/svg"><path d="m267.238281 437.984375v58.828125c0 4.210938-3.402343 7.628906-7.570312 7.628906h-233.730469c-4.191406 0-7.578125-3.417968-7.578125-7.628906v-58.828125c0-29.8125 19.4375-56.089844 47.789063-64.605469l13.4375-4.03125c6.832031-2.046875 12.453124-6.5 16.070312-12.277344 2.359375-3.746093 3.859375-8.070312 4.292969-12.65625.097656-.90625.136719-1.835937.136719-2.773437v-24.429687l78.78125-16.347657v38.773438c0 7.386719 2.769531 14.257812 7.460937 19.441406 3.429687 3.808594 7.898437 6.722656 13.03125 8.261719l20.089844 6.039062c28.359375 8.515625 47.789062 34.792969 47.789062 64.605469zm0 0" fill="#ffdba9"/><path d="m178.867188 300.863281v32.03125c-13.308594 8.988281-29.308594 14.21875-46.519532 14.21875h-11.308594c-7.28125 0-14.351562-.933593-21.089843-2.699219.097656-.90625.136719-1.835937.136719-2.773437v-24.429687zm0 0" fill="#ffc473"/><path d="m216.078125 46.292969v194.9375c0 46.601562-37.492187 84.386719-83.730469 84.386719h-11.308594c-46.25 0-83.742187-37.785157-83.742187-84.386719v-194.9375zm0 0" fill="#ffdba9"/><path d="m225.347656 223.921875h-9.265625v-61.429687h9.265625c15.824219 0 28.65625 12.832031 28.65625 28.660156v4.109375c0 15.828125-12.832031 28.660156-28.65625 28.660156zm0 0" fill="#ffc473"/><path d="m155.132812 7.558594v73.277344c0 9.019531 3.554688 17.671874 9.882813 24.050781l11.167969 11.25c7.335937 7.394531 11.457031 17.421875 11.457031 27.875v3.332031c0 6.929688 5.574219 12.546875 12.449219 12.546875h15.992187v-110.015625c0-23.371094-18.796875-42.316406-41.984375-42.316406zm0 0" fill="#994c00"/><path d="m44.765625 85.027344h75.820313c19.082031 0 34.546874-15.589844 34.546874-34.816406v-42.652344l-145.53125 32.519531c-1.226562.273437-2.101562 1.371094-2.101562 2.636719v4.75c0 20.746094 16.683594 37.5625 37.265625 37.5625zm0 0" fill="#c06100"/><path d="m267.238281 437.984375v58.828125c0 4.210938-3.402343 7.628906-7.570312 7.628906h-233.730469c-4.191406 0-7.578125-3.417968-7.578125-7.628906v-58.828125c0-29.8125 19.4375-56.089844 47.789063-64.605469l13.4375-4.03125c3.929687-1.179687 7.441406-3.164062 10.410156-5.734375l43.171875 14.261719 7.121093 2.347656 7.269532-1.824218 35.140625-8.839844 9.777343-5.332032c2.121094 1.308594 4.421876 2.378907 6.882813 3.113282l20.089844 6.039062c28.359375 8.515625 47.789062 34.792969 47.789062 64.605469zm0 0" fill="#c1e4ff"/><path d="m95.933594 357.070312 44.351562 23.148438-21.15625 24.660156c-2.132812 2.484375-5.949218 2.511719-8.117187.054688l-31.421875-35.585938zm0 0" fill="#00a6ff"/><path d="m184.640625 357.070312-44.355469 23.148438 21.15625 24.660156c2.132813 2.484375 5.949219 2.511719 8.117188.054688l32.480468-36.785156zm0 0" fill="#00a6ff"/><path d="m259.992188 393.175781c-9.648438-13.042969-22.929688-22.394531-38.402344-27.039062l-16.425782-4.9375-15.332031-9.765625c-.058593-.074219-.125-.164063-.183593-.238282-3.605469-4.71875-2.269532-14.714843-10.441407-14.714843-9.578125 0-8.109375 12.214843-5.480469 17.773437l-33.441406 17.453125-34.707031-18.117187c1.316406-3.820313 2.011719-7.847656 2.011719-11.949219v-9.464844c4.445312.664063 8.945312 1 13.449218 1h11.308594c18.152344 0 35.683594-5.363281 50.691406-15.5 25.386719-17.113281 40.539063-45.691406 40.539063-76.449219v-9.75h1.882813c19.875 0 36.042968-16.296874 36.042968-36.328124v-3.886719c0-20.03125-16.167968-36.328125-36.042968-36.328125h-1.878907v-105.058594c0-27.503906-22.199219-49.875-49.488281-49.875h-18.960938c-.265624 0-.527343.015625-.785156.0429688-.011718 0-.019531.0039062-.027344.0039062-.265624.0273438-.523437.070313-.773437.125-.011719.003906-.027344.003906-.039063.007813l-145.527343 32.519531c-4.699219 1.046875-7.980469 5.167969-7.980469 10.019531v4.75c0 19.585938 12.453125 36.292969 29.796875 42.511719v151.246093c0 20.804688 7.089844 41.1875 19.964844 57.40625 11.089843 13.964844 26.09375 24.425782 42.824219 29.976563v13.03125c0 3.757813-.984376 7.417969-2.835938 10.644531l-13.570312 10.199219-12.175782 3.652344c-31.296875 9.402343-53.144531 39.203125-53.144531 71.847656v12.09375c0 9.765625 15 9.765625 15 0v-12.09375c0-26.265625 17.449219-49.855469 42.429687-57.359375l8.871094-2.660156 32.34375 36.628906c1.699219 1.699219 3.585938 2.542969 5.65625 2.535156 2.15625-.015625 4.207032-.96875 5.617188-2.613281l12.007812-13.996094v96.363281h-60.679687v-22.472656c0-9.765625-15-9.765625-15 0v22.472656h-31.164063c-.058594 0-.082031-.042968-.082031-.070312v-19.015625c0-9.765625-15-9.765625-15 0v19.015625c0 8.375 6.765625 15.1875 15.082031 15.1875h233.726563c8.3125 0 15.070312-6.8125 15.070312-15.1875v-58.828125c0-16.269531-5.101562-31.765625-14.746093-44.808594zm-75.722657-27.398437 6.289063 4.003906-25.011719 28.324219-13.367187-15.582031zm62.234375-174.515625v3.886719c0 11.699218-9.441406 21.210937-21.046875 21.210937h-1.875v-46.308594h1.875c11.605469 0 21.046875 9.515625 21.046875 21.210938zm-37.921875-141.386719v12.230469c0 .019531-.003906.039062-.003906.058593v90.167969h-8.492187c-2.726563 0-4.949219-2.238281-4.949219-4.988281v-3.328125c0-12.550781-4.847657-24.351563-13.652344-33.222656l-11.164063-11.253907c-4.957031-4.996093-7.6875-11.640624-7.6875-18.703124v-65.71875h11.460938c19.015625 0 34.488281 15.59375 34.488281 34.757812zm-78.0625 117.574219h46.8125v28.222656h-46.8125zm-115.519531-119.980469v-.855469l132.632812-29.636719v33.234376c0 15.027343-12.132812 27.257812-27.042968 27.257812h-35.261719c-9.707031 0-9.707031 15.117188 0 15.117188h35.261719c10.3125 0 19.761718-3.769532 27.085937-10 .425781 10.445312 4.660157 20.207031 12.039063 27.644531l11.164062 11.25c5.972656 6.019531 9.261719 14.023437 9.261719 22.53125v3.332031c0 1.722656.238281 3.390625.644531 4.988281h-54.226562c-6.085938 0-11.039063 4.988281-11.039063 11.125v1.589844h-12.328125v-1.589844c0-6.136719-4.949218-11.125-11.039062-11.125h-47.355469v-59.746093h12.402344c9.707031 0 9.707031-15.117188 0-15.117188h-12.433594c-16.410156 0-29.765625-13.460938-29.765625-30zm73.191406 148.203125h-43.394531v-28.222656h43.394531zm-43.394531 45.554687v-30.4375h47.355469c6.085937 0 11.039062-4.988281 11.039062-11.125v-19.5h12.328125v19.5c0 6.136719 4.949219 11.125 11.039063 11.125h54.734375c6.085937 0 11.039062-4.988281 11.039062-11.125v-32.214843h16.246094v73.78125c0 25.699219-12.664063 49.582031-33.882813 63.886719-12.535156 8.464843-27.179687 12.941406-42.347656 12.941406h-11.308594c-5.976562 0-11.9375-.703125-17.714843-2.082032-34.460938-8.261718-58.527344-39-58.527344-74.75zm70.226563 156.878907-24.390626-27.625 6.019532-4.523438 31.742187 16.566407zm144.644531 98.777343h-27.355469v-22.472656c0-9.765625-15-9.765625-15 0v22.472656h-69.527344v-96.367187l12.011719 13.996094c1.410156 1.648437 3.457031 2.601562 5.617187 2.617187 2.070313.007813 3.957032-.839844 5.65625-2.535156l33.398438-37.828125 12.839844 3.859375c24.980468 7.503906 42.429687 31.089844 42.429687 57.359375zm0 0"/><path d="m82.84375 181.5625c0-4.945312-3.980469-8.957031-8.886719-8.957031s-8.882812 4.011719-8.882812 8.957031 3.976562 8.953125 8.882812 8.953125 8.886719-4.007813 8.886719-8.953125zm0 0"/><path d="m153.925781 181.5625c0-4.945312-3.976562-8.957031-8.882812-8.957031s-8.886719 4.011719-8.886719 8.957031 3.980469 8.953125 8.886719 8.953125 8.882812-4.007813 8.882812-8.953125zm0 0"/><path d="m121.828125 275.058594c11.066406-4.085938 17.617187-11.851563 20.535156-16.117188 2.351563-3.4375 1.496094-8.144531-1.914062-10.515625-3.410157-2.371093-8.082031-1.507812-10.433594 1.929688-1.90625 2.789062-6.179687 7.863281-13.351563 10.507812-9.375 3.464844-17.714843.65625-20.867187-.710937-3.804687-1.652344-8.21875.117187-9.855469 3.953125-1.640625 3.832031.117188 8.28125 3.921875 9.929687 3.097657 1.34375 9.492188 3.601563 17.515625 3.601563 4.414063 0 9.324219-.683594 14.449219-2.578125zm0 0"/></svg>